<svg width="23" height="23" viewBox="0 0 23 23" fill="none" xmlns="http://www.w3.org/2000/svg">
<path d="M19.7646 5.97709H18.5267C18.2662 4.31111 17.414 2.7925 16.124 1.69557C14.834 0.598645 13.1913 -0.00427246 11.4926 -0.00427246C9.79388 -0.00427246 8.15117 0.598645 6.86118 1.69557C5.5712 2.7925 4.719 4.31111 4.45853 5.97709H3.23295C2.37533 5.97807 1.55313 6.31662 0.9467 6.91848C0.340274 7.52034 -0.000848113 8.33635 -0.00183105 9.18751V19.7881C-0.000848113 20.6393 0.340274 21.4553 0.9467 22.0572C1.55313 22.659 2.37533 22.9976 3.23295 22.9986H19.7646C20.6222 22.9976 21.4444 22.659 22.0509 22.0572C22.6573 21.4553 22.9984 20.6393 22.9994 19.7881V9.18751C22.9984 8.33635 22.6573 7.52034 22.0509 6.91848C21.4444 6.31662 20.6222 5.97807 19.7646 5.97709ZM11.4938 1.71865C12.7317 1.72027 13.9314 2.14433 14.8916 2.91969C15.8518 3.69505 16.5142 4.77454 16.7675 5.97709H6.22262C6.47611 4.77506 7.13815 3.69601 8.09781 2.92073C9.05747 2.14546 10.2564 1.72106 11.4938 1.71865ZM21.2663 19.7881C21.2659 20.1833 21.1076 20.5622 20.8261 20.8416C20.5445 21.121 20.1628 21.2782 19.7646 21.2785H3.23419C2.83603 21.2782 2.45427 21.121 2.17273 20.8416C1.89119 20.5622 1.73287 20.1833 1.73255 19.7881V9.18751C1.73287 8.79235 1.89119 8.41347 2.17273 8.13404C2.45427 7.85462 2.83603 7.6975 3.23419 7.69718H19.7646C20.1628 7.6975 20.5445 7.85462 20.8261 8.13404C21.1076 8.41347 21.2659 8.79235 21.2663 9.18751V19.7881Z" fill="#2E2E2A"/>
</svg>
