<svg width="23" height="23" viewBox="0 0 23 23" fill="none" xmlns="http://www.w3.org/2000/svg">
<path d="M19.7665 5.97709H18.5285C18.268 4.31111 17.4158 2.7925 16.1258 1.69557C14.8359 0.598645 13.1931 -0.00427246 11.4944 -0.00427246C9.79571 -0.00427246 8.153 0.598645 6.86302 1.69557C5.57303 2.7925 4.72083 4.31111 4.46036 5.97709H3.23478C2.37717 5.97807 1.55496 6.31662 0.948531 6.91848C0.342105 7.52034 0.000982941 8.33635 0 9.18751V19.7881C0.000982941 20.6393 0.342105 21.4553 0.948531 22.0572C1.55496 22.659 2.37717 22.9976 3.23478 22.9986H19.7665C20.6241 22.9976 21.4463 22.659 22.0527 22.0572C22.6591 21.4553 23.0003 20.6393 23.0012 19.7881V9.18751C23.0003 8.33635 22.6591 7.52034 22.0527 6.91848C21.4463 6.31662 20.6241 5.97807 19.7665 5.97709ZM11.4957 1.71865C12.7335 1.72027 13.9332 2.14433 14.8934 2.91969C15.8536 3.69505 16.516 4.77454 16.7694 5.97709H6.22445C6.47794 4.77506 7.13998 3.69601 8.09964 2.92073C9.0593 2.14546 10.2583 1.72106 11.4957 1.71865ZM21.2681 19.7881C21.2678 20.1833 21.1095 20.5622 20.8279 20.8416C20.5464 21.121 20.1646 21.2782 19.7665 21.2785H3.23602C2.83786 21.2782 2.4561 21.121 2.17456 20.8416C1.89302 20.5622 1.73471 20.1833 1.73438 19.7881V9.18751C1.73471 8.79235 1.89302 8.41347 2.17456 8.13404C2.4561 7.85462 2.83786 7.6975 3.23602 7.69718H19.7665C20.1646 7.6975 20.5464 7.85462 20.8279 8.13404C21.1095 8.41347 21.2678 8.79235 21.2681 9.18751V19.7881Z" fill="#F6F5F3"/>
</svg>
