<svg width="18" height="17" viewBox="0 0 18 17" fill="none" xmlns="http://www.w3.org/2000/svg">
<g clip-path="url(#clip0)">
<path d="M3.72284 16.9992C3.62525 16.9993 3.53019 16.9685 3.45146 16.9113C3.38179 16.8613 3.32769 16.7929 3.29537 16.7139C3.26304 16.6349 3.25379 16.5484 3.26866 16.4644L4.23538 10.8744L0.139293 6.91516C0.0776575 6.85567 0.0340678 6.78025 0.0134405 6.69745C-0.00718673 6.61464 -0.0040209 6.52776 0.0225894 6.44666C0.0491129 6.36543 0.0980981 6.29322 0.163976 6.23825C0.229854 6.18328 0.30998 6.14775 0.39522 6.13572L6.05564 5.32002L8.58669 0.230613C8.74137 -0.0817232 9.25812 -0.0817232 9.4135 0.230613L11.9445 5.32002L17.605 6.13572C17.6901 6.14787 17.7701 6.18345 17.8358 6.23842C17.9015 6.29338 17.9504 6.36553 17.9769 6.44666C18.0034 6.52772 18.0066 6.61451 17.9861 6.69728C17.9656 6.78005 17.9223 6.8555 17.8609 6.91516L13.7641 10.8744L14.7315 16.4644C14.7461 16.5485 14.7366 16.6349 14.7041 16.7139C14.6717 16.7928 14.6176 16.8612 14.548 16.9113C14.4786 16.9617 14.3963 16.9918 14.3105 16.9979C14.2247 17.0041 14.1389 16.9862 14.0629 16.9462L9.00079 14.3073L3.9408 16.9455C3.87378 16.9811 3.79886 16.9995 3.72284 16.9992ZM9.00009 13.3334C9.07487 13.3333 9.14853 13.3515 9.21453 13.3864L13.6657 15.7059L12.8156 10.7915C12.803 10.7185 12.8085 10.6436 12.8315 10.5731C12.8545 10.5027 12.8944 10.4389 12.9478 10.3871L16.5482 6.90679L11.5726 6.1901C11.4986 6.17949 11.4283 6.15115 11.3677 6.10754C11.3072 6.06393 11.2583 6.00636 11.2253 5.93981L9.0029 1.4681L6.77769 5.93911C6.7447 6.0057 6.69582 6.0633 6.63529 6.10692C6.57477 6.15054 6.50442 6.17885 6.43036 6.1894L1.45194 6.9061L5.05236 10.3864C5.10588 10.4381 5.14593 10.5019 5.16908 10.5723C5.19222 10.6428 5.19776 10.7177 5.18523 10.7908L4.33523 15.7052L8.78494 13.3899C8.85172 13.3533 8.92664 13.3339 9.0029 13.3334H9.00009Z" fill="#2E2E2B"/>
<path d="M10.224 7.92413C10.1342 7.91107 10.0489 7.87667 9.97549 7.82386C9.90204 7.77105 9.84255 7.7014 9.80211 7.62086L9.14616 4.65436C9.14163 4.62921 9.14662 4.60328 9.16016 4.58153C9.17371 4.55979 9.19486 4.54376 9.21957 4.53652C9.24429 4.52927 9.27083 4.53131 9.29412 4.54224C9.31741 4.55318 9.33581 4.57225 9.34582 4.5958L10.4707 7.0666C10.4927 7.1152 10.5271 7.15725 10.5705 7.18857C10.6139 7.21988 10.6648 7.23937 10.7182 7.24508L13.4215 7.54626C13.4354 7.5459 13.4492 7.54824 13.4621 7.55316C13.475 7.55807 13.4869 7.56547 13.4969 7.57492C13.507 7.58437 13.5151 7.5957 13.5207 7.60824C13.5263 7.62079 13.5294 7.63432 13.5298 7.64805C13.5302 7.66178 13.5278 7.67546 13.5228 7.68828C13.5179 7.70111 13.5104 7.71285 13.5009 7.72282C13.4914 7.73278 13.4799 7.7408 13.4673 7.74639C13.4546 7.75198 13.441 7.75505 13.4271 7.75542L10.224 7.92413Z" fill="#2E2E2B"/>
</g>
<defs>
<clipPath id="clip0">
<rect width="18" height="17" fill="white"/>
</clipPath>
</defs>
</svg>
