<svg width="16" height="14" viewBox="0 0 16 14" fill="none" xmlns="http://www.w3.org/2000/svg">
<g clip-path="url(#clip0)">
<path d="M14.3369 0.917603H13.5989V3.53325C13.5989 3.62674 13.5605 3.71642 13.4923 3.78259C13.4241 3.84877 13.3315 3.88604 13.2349 3.88622H11.3848C11.2881 3.88622 11.1953 3.84904 11.1269 3.78284C11.0585 3.71664 11.0201 3.62686 11.0201 3.53325V0.917603H5.04175V3.53325C5.04175 3.62674 5.00343 3.71642 4.93519 3.78259C4.86695 3.84877 4.77437 3.88604 4.67777 3.88622H2.82766C2.77977 3.88622 2.73235 3.87709 2.6881 3.85935C2.64385 3.84162 2.60365 3.81562 2.56979 3.78284C2.53592 3.75006 2.50905 3.71115 2.49072 3.66833C2.4724 3.6255 2.46298 3.5796 2.46298 3.53325V0.917603H1.66236C1.22159 0.917971 0.798974 1.0876 0.487302 1.38925C0.175631 1.69091 0.00038096 2.09993 0 2.52653V12.3904C0.000380646 12.817 0.175616 13.2261 0.487267 13.5279C0.798918 13.8297 1.22152 13.9995 1.66236 14H14.3369C14.7774 13.9989 15.1994 13.8289 15.5106 13.5272C15.8218 13.2255 15.9967 12.8167 15.9971 12.3904V2.52653C15.9965 2.10035 15.8215 1.69175 15.5104 1.39019C15.1992 1.08864 14.7772 0.918707 14.3369 0.917603ZM15.0562 12.3904C15.0562 12.575 14.9804 12.7521 14.8455 12.8827C14.7106 13.0132 14.5277 13.0866 14.3369 13.0866H1.66236C1.47158 13.0866 1.28862 13.0132 1.15372 12.8827C1.01882 12.7521 0.943028 12.575 0.943028 12.3904V4.97579H15.0562V12.3904Z" fill="#2E2E2B"/>
<path d="M4.66879 0.918295V0H2.83594V0.918295V3.45666H4.66879V0.918295Z" fill="#2E2E2B"/>
<path d="M13.2261 0.918295V0H11.3926V0.918295V3.45666H13.2261V0.918295Z" fill="#2E2E2B"/>
</g>
<defs>
<clipPath id="clip0">
<rect width="16" height="14" fill="white"/>
</clipPath>
</defs>
</svg>
