<svg width="20" height="13" viewBox="0 0 20 13" fill="none" xmlns="http://www.w3.org/2000/svg">
<g clip-path="url(#clip0)">
<path d="M4.73984 9.77307C3.33605 9.03548 2.0845 8.04013 1.05095 6.83931C0.973265 6.74306 0.930909 6.62321 0.930909 6.49965C0.930909 6.37609 0.973265 6.25624 1.05095 6.15999C3.42055 3.43421 6.60136 1.93219 9.9985 1.93219C10.7878 1.93287 11.5749 2.01614 12.3468 2.18063L13.121 1.40762C12.1013 1.13863 11.0511 1.00215 9.99637 1.00159C6.32171 1.00159 2.89397 2.61718 0.343629 5.55024C0.119182 5.81607 -0.00390625 6.15245 -0.00390625 6.5C-0.00390625 6.84756 0.119182 7.18394 0.343629 7.44977C1.38947 8.66361 2.64216 9.68349 4.04391 10.4623L4.73984 9.77307Z" fill="#2E2E2B"/>
<path d="M19.6522 5.55023C18.6065 4.33619 17.3538 3.31628 15.9519 2.53767L15.2609 3.22693C16.6639 3.96447 17.9147 4.95958 18.9477 6.15998C19.0254 6.25623 19.0677 6.37608 19.0677 6.49964C19.0677 6.62321 19.0254 6.74305 18.9477 6.8393C16.5781 9.56579 13.3973 11.0671 10.0001 11.0671C9.21087 11.0663 8.42385 10.9833 7.65188 10.8194L6.87695 11.5924C7.89687 11.8613 8.94732 11.9978 10.0023 11.9984C13.6769 11.9984 17.1054 10.3828 19.655 7.44976C19.8791 7.1836 20.0016 6.84703 20.0011 6.49948C20.0006 6.15192 19.877 5.81573 19.6522 5.55023Z" fill="#2E2E2B"/>
<path d="M10.0002 10.4155C11.0412 10.4153 12.0395 10.0027 12.7755 9.26844C13.5116 8.53419 13.9252 7.53838 13.9254 6.49999C13.9253 5.94913 13.8081 5.40455 13.5817 4.90215L8.39844 10.0726C8.90208 10.2985 9.44801 10.4154 10.0002 10.4155Z" fill="#2E2E2B"/>
<path d="M6.07422 6.49999C6.0745 7.05083 6.19163 7.59538 6.41791 8.09784L11.6012 2.92737C11.0975 2.70146 10.5516 2.58461 9.99936 2.58452C9.48388 2.58443 8.97343 2.68564 8.49717 2.88238C8.0209 3.07911 7.58816 3.36752 7.22366 3.73113C6.85916 4.09473 6.57004 4.52641 6.37281 5.0015C6.17559 5.47658 6.07413 5.98578 6.07422 6.49999Z" fill="#2E2E2B"/>
<path d="M13.2253 4.27252L14.5923 2.90821L15.2989 2.20334L16.3115 1.19395C16.4427 1.06298 16.5163 0.885403 16.5163 0.700256C16.5163 0.515109 16.4427 0.337536 16.3115 0.206563C16.2461 0.141341 16.1684 0.0896918 16.0829 0.0546018C15.9974 0.0195118 15.9058 0.00167664 15.8134 0.0021285C15.7209 0.00151924 15.6292 0.0192824 15.5437 0.0543814C15.4582 0.0894803 15.3805 0.141213 15.3152 0.206563L13.8828 1.63547L13.1477 2.37654L12.239 3.28301L6.77899 8.72961L5.40846 10.0932L4.70186 10.7974L3.68925 11.8075C3.55807 11.9384 3.48438 12.116 3.48438 12.3012C3.48438 12.4863 3.55807 12.6639 3.68925 12.7949C3.75457 12.8601 3.83224 12.9118 3.91775 12.9469C4.00326 12.982 4.0949 12.9998 4.18737 12.9993C4.27984 12.9999 4.37152 12.9821 4.45704 12.947C4.54256 12.9119 4.62021 12.8602 4.68548 12.7949L6.11792 11.3659L6.86296 10.6227L7.77165 9.71628L13.2253 4.27252Z" fill="#2E2E2B"/>
</g>
<defs>
<clipPath id="clip0">
<rect width="20" height="13" fill="white"/>
</clipPath>
</defs>
</svg>
