<svg xmlns="http://www.w3.org/2000/svg" viewBox="0 0 319 296"><defs><style>.cls-1{fill:#b1813a;}</style></defs><g id="Active_community" data-name="Active community"><path class="cls-1" d="M206.54,166c-4.81,6.15-11,9.43-18,11.62,1.87,2.27,3.7,4.33,5.33,6.54a2.8,2.8,0,0,0,3,1.43c2.1-.37,4.28-.39,6.36-.83,8.79-1.87,16.3-5.93,21.86-13.15a4.37,4.37,0,0,0,.87-2.66c-.27-4.83-.44-9.69-1.11-14.48a135.16,135.16,0,0,0-10.41-36.17c-1.4-3.13-2.58-6.32-5.92-8.33-7.4-4.45-15.16-7.63-23.83-8.37a2.4,2.4,0,0,0-2.78,1.62c8.57,2.76,16.72,6.25,23.8,11.92a83.44,83.44,0,0,0-39.17-9.39,93,93,0,0,0-39.57,8.9,85.79,85.79,0,0,1,11.77-7c4.16-1.95,8.55-3.4,12.89-5.09-1-1.65-2.57-1-3.82-.83a51.58,51.58,0,0,0-24,9.48,6.64,6.64,0,0,0-2,2.29,127.59,127.59,0,0,0-9.41,24.82,130.49,130.49,0,0,0-4.49,30.44,4,4,0,0,0,.71,2.53,45.29,45.29,0,0,0,5.31,5.59c6.08,5.12,13.29,7.62,21.1,8.63,2.41.3,4.44.12,5.92-2.32a55.31,55.31,0,0,1,4.57-5.78c-6.95-2.18-12.78-5.5-17.44-11.37,26.27,14.62,52.15,14.87,78.44-.05M208,213.46c1.74,6,3.46,12,5.23,18.12H99.59c-10.26,0-18.16-5.85-20.74-15.38a17.22,17.22,0,0,1-.61-4.34q0-68.66,0-137.29C78.24,64.3,87.52,55,97.8,55H235.09c10.51,0,19.33,9.13,19.61,20.16V254.62l-.42.38L208,213.46"/><path class="cls-1" d="M148.28,139c5.77,0,10.19,4.77,10.19,11s-4.51,11-10.38,11S138,156.13,137.92,149.8c-.06-5.6,4.66-11.21,10.36-10.79"/><path class="cls-1" d="M195.28,149.93c0,4.24-1.74,7.65-5.43,9.78a9.3,9.3,0,0,1-10.08-.22c-6.75-4.19-6.73-14.94,0-19.08a9.31,9.31,0,0,1,10-.21c3.69,2.1,5.44,5.47,5.51,9.73"/></g></svg>