<svg xmlns="http://www.w3.org/2000/svg" viewBox="0 0 255 287"><defs><style>.cls-1{fill:#b1813a;}</style></defs><g id="Content_partners" data-name="Content partners"><path class="cls-1" d="M67.21,160.76A50.79,50.79,0,0,1,115.38,110V67.25A38.42,38.42,0,0,0,77.07,28.93h0A38.43,38.43,0,0,0,38.76,67.25V210.69A38.42,38.42,0,0,0,77.07,249h0a38.42,38.42,0,0,0,38.29-37.51A50.79,50.79,0,0,1,67.21,160.76Z"/><path class="cls-1" d="M200.82,155.55v90.22H124.19V211.16A50.79,50.79,0,0,0,148.31,120a38.27,38.27,0,0,1,52.51,35.56Z"/><path class="cls-1" d="M104.52,141.58v38.47a3.74,3.74,0,0,0,5.65,3.21l33.19-19.73a3.74,3.74,0,0,0-.07-6.47l-33.2-18.74A3.74,3.74,0,0,0,104.52,141.58Z"/></g></svg>