<svg id="Firmware_updates" data-name="Firmware updates" xmlns="http://www.w3.org/2000/svg" viewBox="0 0 337 300"><defs><style>.cls-1{fill:#b1813a;}</style></defs><path class="cls-1" d="M169.88,252.5a7,7,0,0,1-7-7V159H152.27A11.53,11.53,0,0,1,143,140.59l32.82-44.12a11.43,11.43,0,0,1,9.25-4.64h0a11.43,11.43,0,0,1,9.25,4.64l32.83,44.12A11.53,11.53,0,0,1,217.92,159H207.3v21.26h34.76A31.86,31.86,0,0,0,247.62,117a7,7,0,0,1-5.72-7.91,52.43,52.43,0,0,0,.56-7.6,45.44,45.44,0,0,0-86.91-18.59,7,7,0,0,1-7.76,4,32.33,32.33,0,0,0-6.29-.62h-1.23a32,32,0,0,0-31.19,25.33,7,7,0,0,1-8.1,5.46,36.42,36.42,0,0,0-6.36-.57,31.87,31.87,0,0,0,0,63.73h45.87a7,7,0,0,1,0,14H94.62a45.87,45.87,0,0,1,0-91.73c.84,0,1.67,0,2.51.07a46.08,46.08,0,0,1,43.14-30.29h1.23c1.23,0,2.45,0,3.67.14a59.44,59.44,0,0,1,111.29,29.07c0,1.09,0,2.2-.08,3.3a45.87,45.87,0,0,1-14.32,89.44H200.3a7,7,0,0,1-7-7V152a7,7,0,0,1,7-7H213l-27.91-37.51L157.19,145h12.69a7,7,0,0,1,7,7v93.5A7,7,0,0,1,169.88,252.5Z"/></svg>