<svg xmlns="http://www.w3.org/2000/svg" viewBox="0 0 309 290"><defs><style>.cls-1{fill:#b1813a;}</style></defs><g id="Flawless_video_syncing" data-name="Flawless video syncing"><path class="cls-1" d="M237.25,225.56H87.75a46.33,46.33,0,0,1-46.27-46.27V103.71A46.33,46.33,0,0,1,87.75,57.44h149.5a46.33,46.33,0,0,1,46.27,46.27v75.58A46.33,46.33,0,0,1,237.25,225.56Zm-149.5-155a33.2,33.2,0,0,0-33.16,33.16v75.58a33.2,33.2,0,0,0,33.16,33.16h149.5a33.2,33.2,0,0,0,33.16-33.16V103.71a33.2,33.2,0,0,0-33.16-33.16Z"/><path class="cls-1" d="M213,140.45l-75.69-43.7a1.07,1.07,0,0,0-1.6.93v87.39a1.07,1.07,0,0,0,1.6.93L213,142.3A1.07,1.07,0,0,0,213,140.45Z"/></g></svg>