<svg xmlns="http://www.w3.org/2000/svg" viewBox="0 0 308.23 297.57"><defs><style>.cls-1{fill:#b1813a;}</style></defs><g id="Open_API_for_developers" data-name="Open API for developers"><rect class="cls-1" x="116.82" y="116.79" width="59.35" height="59.35" rx="6.55"/><path class="cls-1" d="M252.41,162.58H225.05V130.42h27.36a7,7,0,1,0,0-14H225.05V95.85A28,28,0,0,0,197.11,67.9H176.58V40.59a7,7,0,0,0-14,0V67.9H130.42V40.59a7,7,0,1,0-14,0V67.9H95.87A28,28,0,0,0,67.93,95.85v20.57H40.59a7,7,0,0,0,0,14H67.93v32.16H40.59a7,7,0,0,0,0,14H67.93v20.5A28,28,0,0,0,95.87,225h20.55v27.38a7,7,0,1,0,14,0V225h32.16v27.38a7,7,0,1,0,14,0V225h20.53a28,28,0,0,0,27.94-27.95v-20.5h27.36a7,7,0,1,0,0-14Zm-41.36,34.5A14,14,0,0,1,197.11,211H95.87a14,14,0,0,1-13.94-13.95V95.85A14,14,0,0,1,95.87,81.9H197.11a14,14,0,0,1,13.94,13.95Z"/></g></svg>