<svg xmlns="http://www.w3.org/2000/svg" viewBox="0 0 271 298"><defs><style>.cls-1{fill:#b1813a;}</style></defs><g id="Remote_control" data-name="Remote control"><circle class="cls-1" cx="60.48" cy="219.7" r="11.85"/><path class="cls-1" d="M167.5,233.18a8.21,8.21,0,0,1-8.2-8.19A104.51,104.51,0,0,0,54.94,120.72a8.2,8.2,0,1,1,0-16.39A120.93,120.93,0,0,1,175.7,225a8.21,8.21,0,0,1-8.19,8.21Z"/><path class="cls-1" d="M117.63,233.18a8.2,8.2,0,0,1-8.2-8.19A54.57,54.57,0,0,0,54.94,170.6a8.2,8.2,0,1,1,0-16.4A71,71,0,0,1,125.82,225a8.19,8.19,0,0,1-8.18,8.21Z"/><path class="cls-1" d="M220.06,233.18a8.21,8.21,0,0,1-8.2-8.19c-.09-86.44-70.49-156.77-156.92-156.77a8.2,8.2,0,0,1,0-16.4c95.46,0,173.21,77.68,173.31,173.15a8.2,8.2,0,0,1-8.19,8.21Z"/></g></svg>