<svg width="21" height="29" viewBox="0 0 21 29" fill="none" xmlns="http://www.w3.org/2000/svg">
<path d="M4.94359 29C3.63375 28.9958 2.37874 28.4626 1.45253 27.5169C0.526327 26.5712 0.00415282 25.2897 0 23.9523V5.04773C0.00415282 3.7103 0.526327 2.42885 1.45253 1.48313C2.37874 0.537416 3.63375 0.00424031 4.94359 0C6.25344 0.00424031 7.50845 0.537416 8.43465 1.48313C9.36086 2.42885 9.88303 3.7103 9.88719 5.04773V23.9523C9.89403 26.7278 7.66188 29 4.94359 29Z" fill="#F6F5F3"/>
<path d="M16.0569 12.067C14.747 12.0713 13.492 12.6044 12.5658 13.5501C11.6396 14.4959 11.1174 15.7773 11.1133 17.1147V28.4896H21.0005V17.1147C20.9963 15.7773 20.4741 14.4959 19.5479 13.5501C18.6217 12.6044 17.3667 12.0713 16.0569 12.067Z" fill="#F6F5F3"/>
</svg>
