<?xml version="1.0" encoding="utf-8"?>
<!-- Generator: Adobe Illustrator 25.4.1, SVG Export Plug-In . SVG Version: 6.00 Build 0)  -->
<svg version="1.1" id="Layer_1" xmlns="http://www.w3.org/2000/svg" xmlns:xlink="http://www.w3.org/1999/xlink" x="0px" y="0px"
	 viewBox="0 0 595.3 794.2" style="enable-background:new 0 0 595.3 794.2;" xml:space="preserve">
<style type="text/css">
	.st0{fill:#2E2E2A;}
</style>
<path class="st0" d="M288.8,215.2v269.2c0,41.4-34.2,75.2-75.6,73.3c-38.2-1.8-68.9-33.5-68.9-72.1V216.3c0-39,30.4-71.7,69.4-73.3
	c21-0.8,40.1,7.4,53.9,21.2C280.6,177.3,288.8,195.4,288.8,215.2z"/>
<path class="st0" d="M451,387.8v162.7H306.6V387.8c0-39.7,32.5-72.2,72.2-72.2S451,348.1,451,387.8z"/>
<g>
	<path class="st0" d="M196.4,616.3v33h-14.9v-29.9c0-7.5-3.7-12.1-9.5-12.1c-7.5,0-12.7,5.1-12.7,14.6v27.3h-14.9v-79.5h14.9v35.7
		c3.4-7.6,9.5-11.1,17.3-11.1C189.3,594.4,196.4,603.2,196.4,616.3z"/>
	<path class="st0" d="M203.7,622.1c0-16.3,9.5-27.8,24.9-27.8c7.3,0,14,3.3,16.6,8.8h0.1v-7.6h14.9v53.8h-14.9v-8.3h-0.1
		c-2.9,5.8-9.4,9.4-16.6,9.4C213.2,650.5,203.7,639,203.7,622.1z M245.8,622.7V622c0-9.5-5.6-15.7-13.8-15.7
		c-7.9,0-13.6,6.2-13.6,15.8c0,10.2,5.6,16.4,13.6,16.4C240.1,638.6,245.8,632.4,245.8,622.7z"/>
	<path class="st0" d="M323.7,616.3v33h-14.9v-29.9c0-7.5-3.7-12.1-9.5-12.1c-7.5,0-12.7,5.1-12.7,14.6v27.3h-14.9v-53.8h14.9v10
		c3.4-7.6,9.5-11.1,17.3-11.1C316.6,594.4,323.7,603.2,323.7,616.3z"/>
	<path class="st0" d="M331,622.1c0-16.3,9.5-27.8,24.9-27.8c7.3,0,14.6,3.3,17.3,8.8h0.1v-33.4h14.9v79.5h-14.9v-8.3h-0.1
		c-2.8,5.8-10.1,9.4-17.3,9.4C340.6,650.5,331,639,331,622.1z M345.8,622.1c0,10.2,5.6,16.4,13.6,16.4c8.2,0,13.8-6.1,13.8-15.9V622
		c0-9.5-5.6-15.7-13.8-15.7C351.4,606.4,345.8,612.6,345.8,622.1z"/>
	<path class="st0" d="M451,654.4c0,13.6-11.1,22.6-26.6,22.6s-25.9-7.4-27.2-20.5h15.1c1.2,5.4,5.6,9.1,12,9.1
		c6.8,0,11.8-4.3,11.8-10.3v-18c-3.4,7.1-9.4,10.4-16.8,10.4c-12.3,0-20.3-8.3-20.3-22.8v-29.3h14.9v26.9c0,7.6,3.6,12.2,9.5,12.2
		c7.5,0,12.7-5.2,12.7-14.6v-24.5H451L451,654.4L451,654.4z"/>
</g>
<g>
	<path class="st0" d="M477,573.2h-8.1v22.3H465v-22.3h-8.1v-3.4H477L477,573.2L477,573.2z M507.4,569.8v25.7h-3.8v-19.4l-8.8,10.2
		h-1L485,576v19.5h-3.8v-25.7h3.4l9.7,11.8l9.8-11.8L507.4,569.8L507.4,569.8z"/>
</g>
</svg>
